# xmcd
#
# Track frame offsets:
#	150
#	24847
#	36650
#	60197
#	72617
#	111750
#	134082
#	158300
#	183385
#	198870
#	216112
#	236960
#	249120
#	266252
#	278372
#	303727
#
# Disc length: 4215 seconds
#
# Revision: 0
# Processed by: cddbd v1.4PL0 Copyright (c) Steve Scherf et al.
# Submitted via: OrangeCD 4.1
#
DISCID=dc107510
DTITLE=B. B. King - Star Series
DYEAR=1900
DGENRE=
TTITLE0=The Thrill Is Gone
TTITLE1=Paying The Cost Be The Boss
TTITLE2=Don't Answer The Door (Parts One and Two)
TTITLE3=How Blue Can You Get
TTITLE4=Why I Sing The Blues
TTITLE5=Chains And Things
TTITLE6=Playin' With My Friends
TTITLE7=Never Make Your Move Too Soon
TTITLE8=Better Not Look Down
TTITLE9=There Must Be A Better World Somewhere
TTITLE10=Hummingbird
TTITLE11=Everyday I Have The Blues (live)
TTITLE12=Sweet Little Angel (live)
TTITLE13=Help The Poor
TTITLE14=So Excited
TTITLE15=Broken Heart
EXTD=
EXTT0=
EXTT1=
EXTT2=
EXTT3=
EXTT4=
EXTT5=
EXTT6=
EXTT7=
EXTT8=
EXTT9=
EXTT10=
EXTT11=
EXTT12=
EXTT13=
EXTT14=
EXTT15=
PLAYORDER=
